<?xml version="1.0" encoding="utf-8"?>
<!-- Generator: Adobe Illustrator 21.0.0, SVG Export Plug-In . SVG Version: 6.00 Build 0)  -->
<svg version="1.1" id="图层_1" xmlns="http://www.w3.org/2000/svg" xmlns:xlink="http://www.w3.org/1999/xlink" x="0px" y="0px"
	 viewBox="0 0 1522.4 224" style="enable-background:new 0 0 1522.4 224;" xml:space="preserve">
<g>
	<g>
		<g>
			<g>
				<g>
					<g>
						<path d="M171,41C171,41,171,41,171,41l-71-41l-12,6.9c-0.6,0.3-1.2,0.6-1.8,1L10.1,51.7l33.8,19.5c2.6,1.5,5.7,1.5,8.3,0
							l17-9.8l22.2-12.8c5.2-3,11.6-3,16.8,0l17.4,10l21.5,12.4c2.6,1.5,5.7,1.5,8.3,0l33.9-19.5L171,41z"/>
					</g>
				</g>
				<g>
					<g>
						<path d="M165.7,88.3c-2.6,1.5-4.2,4.2-4.2,7.2v44.9c0,6-3.2,11.5-8.4,14.5l-39.7,22.9c-2.6,1.5-4.2,4.2-4.2,7.2v39l76.7-44.2
							c0.1-0.1,0.2-0.1,0.3-0.2l13.3-7.6v-10.5v-5.1V68.8L165.7,88.3z"/>
					</g>
				</g>
				<g>
					<g>
						<path d="M84.9,177.2L46.4,155c-5.2-3-8.4-8.5-8.4-14.5V95.6c0-3-1.6-5.7-4.2-7.2L0,68.9l0-0.1v0.1l0,0v87.6l0,0v5V172
							l11.9,6.8c0.5,0.4,1.1,0.7,1.7,1l75.6,43.5v-39C89.1,181.4,87.5,178.7,84.9,177.2z"/>
					</g>
				</g>
			</g>
		</g>
	</g>
	<g>
		<path d="M353.3,115.4c-2.9-3.6-6.6-6.6-11.1-9.1c1.8-1.8,3.4-3.8,4.7-6c2.9-4.8,4.3-10.1,4.3-15.8c0-10.3-3.7-18.4-10.9-24
			c-6.8-5.3-16.7-8-29.4-8h-32v120.2h40.6c11.8,0,21.6-3.5,29.1-10.3c7.7-7,11.6-15.8,11.6-26.3
			C360.3,128.1,357.9,121.2,353.3,115.4z M299.9,73.2h12.9c17.1,0,17.1,7.6,17.1,11.2c0,4.9-1.5,8.1-4.8,10.2
			c-2,1.3-4.9,2.3-7.6,2.9l-17.5,0.2L299.9,73.2L299.9,73.2z M338.6,138.8c-0.3,1.8-1.1,3.6-2.5,5.5c-1.8,2.6-4.1,4.4-7,5.7
			c-2.1,0.9-6.5,2-15.5,2h-13.8v-32.2l17.2,0.2c3.3,0.2,6.5,0.7,8,1.1c3,0.8,5.5,2.1,7.6,3.7c0.8,0.6,1.4,1.3,2,1.9
			c0.2,0.2,0.5,0.4,0.6,0.6c0.8,0.9,1.4,1.8,1.9,2.8c1,1.9,1.5,4.3,1.5,7C338.7,137.5,338.7,138.2,338.6,138.8z"/>
		<rect x="492.6" y="51.5" width="20.7" height="121"/>
		<path d="M454.1,172.5h22.2l-51-120h-9.3l-51.6,120h22.7l12.7-29.7h41.7L454.1,172.5z M432.7,122.1h-24.1l1.9-4.4l10.2-23.9
			L432.7,122.1z"/>
		<path d="M867.2,172.5h22.2l-51-120h-9.3l-51.6,120h22.7l12.7-29.7h41.7L867.2,172.5z M845.8,122.1h-24.1l1.9-4.4l10.2-23.9
			L845.8,122.1z"/>
		<rect x="905.8" y="51.5" width="20.7" height="121"/>
		<polygon points="1114.5,52 1093.8,52 1093.8,172.1 1174.4,172.1 1174.4,151.5 1114.5,151.5 		"/>
		<path d="M569.8,52.5h-30.5v120h30.5c33.1,0,60-26.9,60-60S602.9,52.5,569.8,52.5z M569.8,151.6h-9.6V73.4h9.6
			c21.6,0,39.1,17.5,39.1,39.1S591.3,151.6,569.8,151.6z"/>
		<path d="M1462.3,52.5h-30.5v120h30.5c33.1,0,60-26.9,60-60S1495.4,52.5,1462.3,52.5z M1462.3,151.6h-9.6V73.4h9.6
			c21.6,0,39.1,17.5,39.1,39.1S1483.9,151.6,1462.3,151.6z"/>
		<path d="M716.1,128.3c0,13.4-10.9,24.4-24.4,24.4c-13.4,0-24.4-10.9-24.4-24.4V53.3h-20.9v74.9c0,25,20.3,45.3,45.2,45.3
			c25,0,45.2-20.3,45.2-45.3V53.3h-20.9L716.1,128.3L716.1,128.3z"/>
		<path d="M1388.4,128.3c0,13.4-10.9,24.4-24.4,24.4c-13.4,0-24.4-10.9-24.4-24.4V53.3h-20.9v74.9c0,25,20.3,45.3,45.2,45.3
			s45.2-20.3,45.2-45.3V53.3h-20.9V128.3z"/>
		<path d="M1041.3,70.8c6.8,0,13.5,1.9,19.3,5.5l4.2,2.6l11.2-17.4l-4.3-2.7c-9.1-5.6-19.6-8.6-30.4-8.6
			c-34.8,0-63.1,27.8-63.1,61.9s28.3,61.9,63.1,61.9c10.8,0,21.3-3,30.3-8.5l4.4-2.7l-11.2-17.4l-4.2,2.6
			c-5.8,3.5-12.4,5.4-19.3,5.4c-23.3,0-42.2-18.5-42.2-41.2S1018,70.8,1041.3,70.8z"/>
		<path d="M1240.3,48.9c-34.1,0-61.9,28.3-61.9,63.1s27.8,63.1,61.9,63.1s61.9-28.3,61.9-63.1C1302.2,77.2,1274.4,48.9,1240.3,48.9z
			 M1240.3,154.2c-22.4,0-40.6-18.9-40.6-42.2c0-23.3,18.2-42.2,40.6-42.2s40.6,18.9,40.6,42.2
			C1280.9,135.3,1262.7,154.2,1240.3,154.2z"/>
	</g>
</g>
</svg>
