<?xml version="1.0" encoding="utf-8"?>
<!-- Generator: Adobe Illustrator 21.0.0, SVG Export Plug-In . SVG Version: 6.00 Build 0)  -->
<svg version="1.1" id="图层_1" xmlns="http://www.w3.org/2000/svg" xmlns:xlink="http://www.w3.org/1999/xlink" x="0px" y="0px"
	 viewBox="0 0 216 41" style="enable-background:new 0 0 216 41;" xml:space="preserve">
<title>资源</title>
<g id="图层_2">
	<g id="图层_1-2">
		<path d="M19.1,33.8c-7.3,0-13.2-6-13.2-13.3s6-13.2,13.3-13.2c3.4,0,6.7,1.3,9.2,3.7l4-4.1C24.9-0.5,12.8-0.4,5.5,7.1
			S-1.8,26.6,5.7,34c7.5,7.4,19.5,7.3,26.9-0.2l0.5-0.6l-4.2-3.8C26.4,32.2,22.8,33.8,19.1,33.8z"/>
		<rect x="39.4" y="31.3" transform="matrix(0.7071 -0.7071 0.7071 0.7071 -11.2899 41.1056)" width="9.2" height="5.7"/>
		<polygon points="64.8,9.4 53.8,20.4 42.7,9.4 38.7,13.4 64.7,39.5 68.8,35.4 57.8,24.5 68.8,13.5 		"/>
		<path d="M88.6,2.1H74.8v36.7h13.8c10.1,0.2,18.5-7.8,18.8-17.9c0.2-10.1-7.8-18.5-17.9-18.8C89.2,2.1,88.9,2.1,88.6,2.1z
			 M87.2,34.4h-7.1V6.5h7c7.7-0.1,14,6,14.1,13.7c0.1,7.5-5.7,13.7-13.2,14.1L87.2,34.4L87.2,34.4z"/>
		<path d="M119.4,17.3c-1.5,0.1-2.7,1.4-2.6,2.9c0.1,1.5,1.4,2.7,2.9,2.6c1.4-0.1,2.6-1.2,2.6-2.6c0-0.1,0-0.2,0-0.2
			C122.2,18.4,121,17.3,119.4,17.3z"/>
		<path d="M153,25.3v-0.5h-4v0.5c0,5.1-1.2,9-16.6,11.4l-0.5,0.1l0.6,4l0.5-0.1c8.8-1.4,14-3.3,16.9-6.2l20.3,6.3l1.2-3.8l-19.4-5.9
			C152.8,29.2,153.1,27.3,153,25.3z"/>
		<polygon points="139.6,11.8 136.1,9.7 130.9,18.4 134.4,20.4 		"/>
		<path d="M146,3.2V0h-4v7.2h9c-1.4,4.5-5.1,7.8-9.7,8.8l-0.5,0.1l0.9,3.6h-1.2c-3.3,0-6,2.7-6,6v7.5h4v-7.5c0-1.1,0.8-2,1.9-2
			c0,0,0,0,0.1,0h22.2c1.1,0,2.1,0.9,2.1,2v0v7.5h4v-7.5c0-3.3-2.7-6-6-6h-19.8c4.3-1.1,8-3.8,10.3-7.6l16.7,9l1.9-3.4l-17-9.2
			c0.1-0.4,0.3-0.8,0.4-1.2h11.3v5h4v-5c0-2.2-1.8-4-4-4L146,3.2z"/>
		<rect x="134.1" y="0" width="4" height="7.9"/>
		<polygon points="213.8,26 209.7,26.6 212,40.6 216,39.9 		"/>
		<rect x="178.1" y="12.2" width="4" height="9.9"/>
		<polygon points="181.6,24.5 174.7,39.2 178.3,41 185.2,26.1 		"/>
		<rect x="178.1" width="4" height="9.3"/>
		<path d="M192.1,4h23.6V0h-23.6c-3.3,0-6.1,2.7-6.1,6l-0.2,34.8h4L190,6.1C190,4.9,191,4,192.1,4z"/>
		<path d="M215.5,20.7v-8.5c0-2.9-2.3-5.2-5.2-5.2l0,0h-8.9V4.4h-4v2.5h-0.5c-2.9,0-5.2,2.3-5.2,5.2v8.5c0,2.9,2.4,5.2,5.2,5.2h5
			v9.6c0,0.7-0.5,1.2-1.2,1.3c0,0,0,0,0,0h-2v4h2c2.9,0,5.2-2.4,5.2-5.2v-9.6h4.4C213.1,25.9,215.5,23.6,215.5,20.7
			C215.5,20.7,215.5,20.7,215.5,20.7z M195.6,12.1c0-0.7,0.6-1.2,1.2-1.2c0,0,0,0,0,0h13.4c0.7,0,1.2,0.5,1.2,1.2c0,0,0,0,0,0.1v2.3
			h-15.9L195.6,12.1z M196.9,21.9c-0.7,0-1.2-0.5-1.3-1.2c0,0,0,0,0-0.1v-2.3h15.9v2.3c0,0.7-0.5,1.2-1.1,1.3c0,0-0.1,0-0.1,0H196.9
			z"/>
		<rect x="187.6" y="31.3" transform="matrix(0.157 -0.9876 0.9876 0.157 131.2443 220.4035)" width="14.1" height="4.1"/>
	</g>
</g>
</svg>
